HIERARCHY
ROOT Hips
{
  OFFSET -69.4423 88.0299 51.6846
  CHANNELS 6 Xposition Yposition Zposition Zrotation Xrotation Yrotation
  JOINT Spine
  {
    OFFSET 12.0259 -0.162853 1.93176e-005
    CHANNELS 3 Zrotation Xrotation Yrotation
    JOINT Spine1
    {
      OFFSET 15.3169 -0.0121909 0
      CHANNELS 3 Zrotation Xrotation Yrotation
      JOINT Spine2
      {
        OFFSET 15.3176 -0.0121922 0
        CHANNELS 3 Zrotation Xrotation Yrotation
        JOINT Neck
        {
          OFFSET 19.9142 1.56236 0
          CHANNELS 3 Zrotation Xrotation Yrotation
          JOINT Head
          {
            OFFSET 6.92646 0 0
            CHANNELS 3 Zrotation Xrotation Yrotation
            End Site
            {
              OFFSET 20.7666 0 0
            }
          }
          JOINT LeftShoulder
          {
            OFFSET -4.94072 -1.14703 8.14416
            CHANNELS 3 Zrotation Xrotation Yrotation
            JOINT LeftArm
            {
              OFFSET 14.108 0 -2.74767e-005
              CHANNELS 3 Zrotation Xrotation Yrotation
              JOINT LeftForeArm
              {
                OFFSET 28.5802 -0.0783412 -0.0284884
                CHANNELS 3 Zrotation Xrotation Yrotation
                JOINT LeftHand
                {
                  OFFSET 27.092 0 0
                  CHANNELS 3 Zrotation Xrotation Yrotation
                  End Site
                  {
                    OFFSET 9.55928 -0.186424 0.145352
                  }
                }
              }
            }
          }
          JOINT RightShoulder
          {
            OFFSET -7.15748 -1.33027 -6.24935
            CHANNELS 3 Zrotation Xrotation Yrotation
            JOINT RightArm
            {
              OFFSET 14.108 0 1.82997e-005
              CHANNELS 3 Zrotation Xrotation Yrotation
              JOINT RightForeArm
              {
                OFFSET 28.5802 -0.0707221 2.30684e-005
                CHANNELS 3 Zrotation Xrotation Yrotation
                JOINT RightHand
                {
                  OFFSET 27.092 0 -1.30073e-005
                  CHANNELS 3 Zrotation Xrotation Yrotation
                  End Site
                  {
                    OFFSET 9.55929 -0.186417 -0.145354
                  }
                }
              }
            }
          }
        }
      }
    }
  }
  JOINT LeftUpLeg
  {
    OFFSET 0.00499725 -0.534999 8.837
    CHANNELS 3 Zrotation Xrotation Yrotation
    JOINT LeftLeg
    {
      OFFSET 39.9035 -0.00124594 0.000252775
      CHANNELS 3 Zrotation Xrotation Yrotation
      JOINT LeftFoot
      {
        OFFSET 39.6689 0 0
        CHANNELS 3 Zrotation Xrotation Yrotation
        JOINT LeftToe
        {
          OFFSET 10.1624 13.6296 0
          CHANNELS 3 Zrotation Xrotation Yrotation
          End Site
          {
            OFFSET 8.38147 0 0
          }
        }
      }
    }
  }
  JOINT RightUpLeg
  {
    OFFSET 0.00499725 -0.535 -8.837
    CHANNELS 3 Zrotation Xrotation Yrotation
    JOINT RightLeg
    {
      OFFSET 39.9036 -0.000268477 0.000106433
      CHANNELS 3 Zrotation Xrotation Yrotation
      JOINT RightFoot
      {
        OFFSET 39.6689 1.17892e-005 0
        CHANNELS 3 Zrotation Xrotation Yrotation
        JOINT RightToe
        {
          OFFSET 10.1624 13.6296 0
          CHANNELS 3 Zrotation Xrotation Yrotation
          End Site
          {
            OFFSET 8.38147 0 0
          }
        }
      }
    }
  }
}
MOTION
Frames:	18
Frame Time:	0.0333333
82.131 87.6832 -60.9083 89.3755 7.31315 5.1769 1.05467 0.928664 0.0507971 2.10891 1.85829 0.0846811 2.10892 1.85833 0.0846678 -15.1023 0.982283 -11.0938 48.8873 0.320361 6.27041 -166.574 -0.357995 -94.2852 -12.2384 2.73573 82.7892 -22.1953 2.07985 -14.2008 15.6119 -84.7533 18.2718 -166.609 -3.11898 73.4878 -0.216706 -0.313136 -76.9294 -22.9843 -2.42864 13.8068 2.75355 80.2592 -2.55587 -5.49109 -2.93666 -172.947 -18.2915 0.706322 -1.93746 -3.82834 4.72634 1.64093 90 3.18055e-015 4.77083e-015 -1.77424 12.6942 158.44 -35.1357 -0.0996896 0.56433 -7.18531 11.6176 4.40796 90 1.27222e-014 2.38542e-014 
82.2137 88.0474 -58.1529 89.1155 8.46162 5.55613 1.15433 0.734124 0.058314 2.3082 1.46981 0.101968 2.30819 1.46979 0.101959 -15.098 0.784653 -11.3387 49.0046 0.249852 6.85419 -166.585 -0.60905 -94.4157 -13.5949 2.22892 82.7944 -21.4246 1.95709 -13.8066 17.1483 -84.8778 19.8087 -166.652 -3.41274 73.2686 0.210359 -0.0401475 -77.1583 -23.0254 -2.44568 13.8468 2.83702 80.5669 -2.65001 -5.3059 -1.9641 -174.819 -17.7351 0.755913 -1.94156 -3.07002 7.1832 2.20712 90 -9.54166e-015 -7.15625e-015 -2.47952 13.3375 158.542 -37.3539 0.130771 0.348231 -12.3909 16.8653 7.87774 90 0 -3.18055e-015 
82.2739 88.4559 -55.7261 89.0209 9.48156 5.849 1.15066 0.510115 0.109454 2.30052 1.02285 0.20881 2.30049 1.02285 0.208794 -14.9647 0.689957 -11.6817 49.2387 0.169895 7.1342 -166.725 -0.744213 -94.719 -16.0117 2.43352 82.6441 -20.9215 1.85854 -13.5166 17.7531 -85.0855 20.4533 -166.822 -3.55431 72.9143 0.669219 -0.00482149 -77.3778 -23.0158 -2.44833 13.8517 2.63421 79.6767 -2.40754 -4.58706 -1.84056 -176.687 -16.4579 0.775667 -1.96448 -2.59107 7.55238 2.21847 90 7.95139e-015 8.15017e-015 -3.80497 13.6213 159.375 -39.8608 0.120459 0.300684 -10.6885 19.2337 7.89783 90 3.18055e-015 1.59028e-015 
82.4016 88.7633 -53.6657 88.9446 10.6241 5.48593 1.12233 0.254802 0.213743 2.24375 0.514115 0.422623 2.24373 0.514088 0.422615 -14.8469 0.690883 -11.5617 49.3224 0.0716004 6.95951 -166.831 -0.654235 -94.6355 -17.0896 2.71585 82.3197 -20.895 1.83855 -13.4869 13.2983 -83.895 15.8677 -166.962 -3.46968 73.0218 -0.538597 -0.772119 -77.9978 -23.401 -2.52804 14.0749 2.61958 80.0542 -2.39065 -4.60515 -2.43799 -177.682 -16.3456 0.806906 -1.9488 -2.69667 8.17178 2.35455 90 -1.98785e-014 -1.82882e-014 -5.6159 13.8474 161.6 -42.2488 -0.148588 0.394286 -3.6869 14.5452 3.94271 90 1.27222e-014 7.95139e-016 
82.4866 88.9568 -51.8079 88.7457 11.0676 5.26182 1.17233 0.248573 0.261957 2.34357 0.503022 0.518935 2.34357 0.502992 0.518927 -14.935 0.460092 -11.6614 49.071 -0.147608 7.40905 -166.795 -0.907034 -94.7238 -18.7412 3.1249 81.9563 -21.4153 1.90275 -13.7519 13.9279 -84.08 16.475 -166.933 -3.7408 72.982 -0.950442 -0.994932 -78.7314 -23.5858 -2.55737 14.1738 2.24131 79.8959 -2.01067 -4.63157 -3.57862 -178.821 -16.9333 0.841079 -1.9237 -2.53058 7.28412 2.12051 90 3.97569e-015 3.8763e-015 -8.04812 13.3824 164.193 -43.8698 -0.327484 0.407199 0.0399423 6.76209 0.988268 90 1.27222e-014 7.95139e-015 
82.577 89.0727 -50.3881 88.9076 11.3115 4.69702 1.16904 0.205802 0.391541 2.33668 0.420026 0.778964 2.33668 0.420026 0.778949 -14.9578 0.373657 -12.1963 48.3605 0.331801 8.33311 -166.818 -1.14436 -95.288 -18.5929 3.20822 81.9971 -22.1812 2.02093 -14.1551 16.1104 -84.6106 18.6435 -166.952 -3.98776 72.4853 -1.02399 -0.756446 -79.0998 -23.4678 -2.52422 14.1087 1.72908 78.8296 -1.46635 -5.18044 -3.40691 -179.295 -17.8483 0.875521 -1.84706 -2.04487 7.33743 2.12184 90 -8.74653e-015 -7.85199e-015 -11.0237 11.9818 167.718 -45.2858 -0.421621 0.3705 3.91724 0.404567 -1.00331 90 6.36111e-015 1.11319e-014 
82.5934 89.061 -48.9904 88.8492 11.5401 4.39942 1.20719 0.2124 0.366195 2.41302 0.432945 0.727985 2.41301 0.432952 0.727974 -15.1025 0.299595 -11.7058 48.1397 0.145831 8.16299 -166.679 -1.10585 -94.8554 -17.7946 3.34607 81.6183 -22.9397 2.13874 -14.5373 17.9467 -85.4332 20.6197 -166.799 -3.93824 72.9911 -1.82869 -0.939071 -80.103 -23.5778 -2.5594 14.2003 1.75516 77.7626 -1.50697 -5.50936 -3.10901 -179.957 -18.9556 0.904053 -1.76086 -0.931875 6.96617 1.99001 90 -2.38542e-015 -1.98785e-015 -13.6455 8.35725 170.888 -46.5454 -0.415574 0.298217 7.46731 -3.19485 -1.82223 90 -9.54166e-015 -9.54166e-015 
82.6488 88.8977 -47.7767 89.0655 11.9108 4.16336 1.22313 0.142355 0.318591 2.44546 0.291951 0.634206 2.44544 0.291916 0.6342 -15.3884 0.251117 -11.3751 48.0106 0.00405896 8.0673 -166.384 -1.10358 -94.5281 -17.1168 3.21255 81.0263 -23.1161 2.16564 -14.6051 26.6705 -86.7462 29.3546 -166.505 -3.94059 73.3359 -2.46479 -0.642874 -80.8598 -23.5678 -2.55665 14.2046 1.6791 77.7935 -1.43074 -6.39026 -3.11461 179.405 -20.4291 0.933503 -1.66891 0.0872404 6.89545 1.92239 90 -8.34896e-015 -7.35503e-015 -16.0746 3.23071 173.698 -47.4882 -0.362601 0.214312 10.3523 -6.8175 -2.16048 90 1.59028e-015 -9.54166e-015 
82.714 88.6598 -46.5552 89.3041 11.9645 4.02016 1.17487 0.123974 0.277438 2.34914 0.254159 0.552429 2.34914 0.254145 0.55242 -15.4622 0.164203 -12.3078 48.0806 0.779248 9.66096 -166.365 -1.50279 -95.369 -16.7855 3.26532 80.5721 -23.0014 2.14529 -14.5268 30.7111 -87.0857 33.4173 -166.523 -4.35308 72.5081 -2.84788 -0.758857 -81.4943 -23.8029 -2.60786 14.3418 1.72633 77.9273 -1.48027 -7.73529 -2.3612 178.718 -22.7687 0.955579 -1.55925 1.67202 6.95429 1.85142 90 4.77083e-015 4.37326e-015 -17.4524 -1.88173 176.08 -47.5081 -0.320772 0.142996 11.8847 -10.4381 -2.16731 90 1.59028e-015 3.18055e-015 
82.7201 88.2292 -45.312 89.6417 11.12 4.68084 1.11216 0.266373 0.043532 2.22416 0.53402 0.082041 2.22415 0.534001 0.0820324 -15.2674 0.313985 -11.1375 47.6808 -0.0490367 7.7104 -166.472 -0.953482 -94.2965 -16.0128 3.23735 80.2154 -22.7893 2.11039 -14.383 24.9387 -86.4309 27.6745 -166.631 -3.77931 73.586 -4.09786 -1.16039 -81.9872 -23.9822 -2.64938 14.4526 1.93833 78.9526 -1.69442 -8.17883 0.490499 177.499 -23.7231 0.946522 -1.48122 3.9765 6.57067 1.70216 90 1.28946e-014 1.27222e-014 -18.1651 -3.66414 177.83 -46.8236 -0.351965 0.130644 11.1065 -12.5351 -2.24469 90 5.96354e-015 9.54166e-015 
82.6721 88.0125 -44.0994 90.0496 9.79931 5.50028 1.03178 0.52875 -0.262222 2.06612 1.05323 -0.53381 2.0661 1.0532 -0.533817 -15.3265 0.465211 -11.1526 48.1645 0.368006 7.88694 -166.392 -0.866101 -94.2925 -16.2217 3.65394 79.4468 -22.5543 2.06436 -14.217 22.5457 -86.0679 25.2681 -166.558 -3.65998 73.6068 -4.73468 -1.3488 -82.7165 -24.0679 -2.66932 14.497 2.1975 79.3163 -1.95761 -7.89937 2.42582 176.37 -23.5439 0.925002 -1.43697 5.74583 8.10789 1.7096 90 1.07841e-014 1.03368e-014 -17.9722 -2.97855 178.853 -45.2864 -0.48775 0.261337 7.70814 -4.5347 -2.07567 90 -1.47101e-014 -1.11319e-014 
82.645 87.9854 -42.972 90.5424 8.76592 5.62138 0.869988 0.731142 -0.354645 1.74469 1.45733 -0.720275 1.74469 1.45735 -0.720288 -15.018 0.721126 -10.819 48.3235 0.30936 6.94161 -166.657 -0.47429 -94.0071 -15.6937 4.08177 79.4034 -22.1785 2.00519 -14.0038 17.1808 -85.1791 19.8152 -166.822 -3.21652 73.8834 -5.28064 -1.73266 -82.9893 -23.9087 -2.6283 14.3954 2.16675 79.2765 -1.92825 -7.74552 3.30239 175.977 -23.6106 0.908105 -1.42527 7.12023 8.17456 1.63913 90 -4.87022e-015 -4.77083e-015 -17.0271 -1.63898 179.308 -43.1402 -0.535549 0.369727 8.1073 1.7371 -1.49607 90 -7.55382e-015 -8.74653e-015 
82.7025 87.9024 -41.841 90.7568 8.11826 5.425 0.778057 0.832657 -0.303931 1.56078 1.66175 -0.619076 1.56076 1.66175 -0.619087 -15.0743 1.06907 -10.707 48.9767 0.397523 6.0771 -166.573 -0.115677 -93.9612 -14.1375 4.17486 80.0201 -22.1136 2.01891 -14.0016 14.809 -84.1659 17.3613 -166.73 -2.82688 73.9348 -5.55728 -2.06828 -82.9415 -23.8389 -2.60786 14.3473 2.15148 79.4301 -1.91548 -7.64539 4.46617 175.734 -24.0951 0.889739 -1.42565 9.72947 5.23009 1.52708 90 -1.08338e-014 -1.19271e-014 -16.6707 -0.641592 178.713 -42.3935 -0.539076 0.384454 8.35719 0.844701 -1.61648 90 7.95139e-015 6.36111e-015 
82.7914 88.1332 -40.7879 91.0674 7.93601 4.09406 0.767156 0.863471 0.049288 1.56276 1.72799 0.0869738 1.56275 1.72799 0.0869609 -15.4046 1.44342 -10.4498 48.8795 0.521058 5.05274 -166.187 0.267475 -93.8069 -12.8483 3.7035 81.1274 -22.1316 2.05212 -14.0707 15.1585 -84.0897 17.7512 -166.32 -2.4049 74.0733 -6.07506 -1.93971 -82.1358 -23.6667 -2.57095 14.2379 2.41284 79.9355 -2.18812 -8.87243 3.40701 176.662 -25.9879 0.872734 -1.37708 10.3542 6.74981 1.55147 90 7.7526e-015 6.75868e-015 -16.4586 -1.62931 178.586 -41.1468 -0.544138 0.397932 8.17471 -1.26891 -1.81708 90 1.26267e-014 1.43125e-014 
82.8184 88.176 -39.9486 91.1708 8.04188 3.12698 0.773 0.830703 0.406704 1.54035 1.66724 0.802462 1.54033 1.66725 0.80245 -15.6158 1.70335 -10.8538 48.9931 0.737271 4.63893 -165.976 0.363266 -94.3085 -12.1273 3.70895 83.0538 -22.4028 2.11261 -14.2831 16.5572 -84.9054 19.1745 -166.086 -2.2511 73.5659 -6.36821 -2.24644 -80.8704 -23.7521 -2.58787 14.2841 2.42866 80.612 -2.22913 -9.86531 5.06139 177.759 -28.2435 0.844002 -1.35502 13.9935 3.09004 1.75609 90 -1.95803e-014 -1.90833e-014 -15.7966 -2.10422 178.963 -39.8855 -0.565141 0.432871 7.94079 -0.619499 -1.73384 90 -3.34952e-014 -3.49861e-014 
82.7626 88.44 -39.0249 90.8597 8.06079 2.80192 0.853489 0.84889 0.563698 1.69888 1.70654 1.11504 1.69887 1.70653 1.11503 -15.6627 1.71057 -10.8556 48.9952 0.734759 4.55705 -165.947 0.358715 -94.3266 -13.036 3.86369 84.0173 -22.3338 2.09954 -14.2798 17.469 -85.2494 20.0421 -166.022 -2.2522 73.5035 -6.08081 -2.11513 -79.8007 -23.4194 -2.52661 14.1131 2.5651 80.4764 -2.35764 -10.7789 4.65744 178.585 -30.6475 0.829261 -1.27808 14.5563 3.61259 1.74364 90 -3.65764e-014 -3.65764e-014 -14.5435 -1.11643 179.162 -38.3665 -0.595965 0.483545 7.03609 0.855301 -1.4726 90 7.7526e-015 1.19271e-014 
82.6595 88.7814 -37.9913 90.3939 8.49463 2.05272 0.903579 0.777222 0.814712 1.79627 1.56757 1.61746 1.79627 1.56753 1.61744 -15.2675 1.76408 -11.017 48.6931 0.959556 4.58265 -166.358 0.430947 -94.518 -14.3016 4.35194 85.0613 -22.4413 2.11675 -14.3675 15.3024 -84.5917 17.8892 -166.384 -2.16744 73.2782 -5.34185 -1.81274 -78.845 -22.6549 -2.37978 13.7046 2.92407 80.6394 -2.68025 -11.6867 3.48114 -179.581 -33.3287 0.835324 -1.2114 13.1195 3.02907 1.73662 90 5.1684e-015 9.54166e-015 -12.9152 -0.797702 179.407 -36.5751 -0.620574 0.527323 6.01848 0.801776 -1.35402 90 -1.72943e-014 -1.59028e-014 
82.5373 89.1624 -36.8215 90.2345 8.73259 2.25531 0.947522 0.696995 0.704622 1.88661 1.406 1.39794 1.88661 1.40599 1.39793 -15.3724 1.69764 -10.3035 48.909 0.860411 4.45762 -166.278 0.511909 -93.808 -15.2454 4.80644 84.9633 -22.4539 2.10137 -14.3548 11.3522 -83.4333 13.8954 -166.252 -2.05869 73.9859 -3.50768 -1.09823 -79.2825 -22.4291 -2.34658 13.602 3.16161 80.714 -2.93829 -12.2714 1.683 -178.404 -34.6424 0.874747 -1.20129 9.14182 2.05096 1.53877 90 -4.96962e-015 -4.77083e-015 -11.8719 -0.438054 178.512 -35.1152 -0.627652 0.57134 5.27655 1.02983 -1.22813 90 -1.03368e-014 -4.77083e-015 
